<?xml version="1.0" encoding="UTF-8"?>
<svg width="56px" height="49px" viewBox="0 0 56 49" version="1.1" xmlns="http://www.w3.org/2000/svg" xmlns:xlink="http://www.w3.org/1999/xlink">
    <!-- Generator: Sketch 52.5 (67469) - http://www.bohemiancoding.com/sketch -->
    <title>Logo</title>
    <desc>Created with Sketch.</desc>
    <defs>
        <radialGradient cx="50%" cy="0%" fx="50%" fy="0%" r="100%" gradientTransform="translate(0.500000,0.000000),scale(0.816667,1.000000),rotate(90.000000),translate(-0.500000,-0.000000)" id="radialGradient-1">
            <stop stop-color="#655FFF" offset="0%"></stop>
            <stop stop-color="#4945BB" offset="100%"></stop>
        </radialGradient>
        <radialGradient cx="50%" cy="0%" fx="50%" fy="0%" r="100%" gradientTransform="translate(0.500000,0.000000),scale(0.811042,1.000000),rotate(90.000000),translate(-0.500000,-0.000000)" id="radialGradient-2">
            <stop stop-color="#655FFF" offset="0%"></stop>
            <stop stop-color="#4945BB" offset="100%"></stop>
        </radialGradient>
    </defs>
    <g id="Symbols" stroke="none" stroke-width="1" fill="none" fill-rule="evenodd">
        <g id="Logo/Color" transform="translate(-20.000000, -25.000000)">
            <g id="Logo" transform="translate(20.000000, 25.000000)">
                <path d="M2.4742268,0 L53.0587273,8.8817842e-16 C54.425205,-3.00386756e-15 55.5329541,1.10774907 55.5329541,2.4742268 C55.5329541,3.21711642 55.1991532,3.92069159 54.6237613,4.39059495 L4.03926079,45.7012704 C2.98087989,46.5656148 1.42220306,46.4083171 0.557858653,45.3499362 C0.197070519,44.9081548 -7.78333026e-14,44.355287 -7.63833441e-14,43.7849022 L-9.23705556e-14,2.4742268 C-9.25379009e-14,1.10774907 1.10774907,-1.08124974e-15 2.4742268,-1.33226763e-15 Z" id="Rectangle" fill="url(#radialGradient-1)" opacity="0.201171875"></path>
                <path d="M17.8556701,16 L52.8279198,16 C53.8527781,16 54.6835899,16.8308118 54.6835899,17.8556701 C54.6835899,18.4150369 54.4312675,18.9445588 53.9968253,19.2969096 L19.0245756,47.6608667 C18.228601,48.3064354 17.0599993,48.1845073 16.4144306,47.3885327 C16.1463198,47.0579569 16,46.6452606 16,46.2196272 L16,17.8556701 C16,16.8308118 16.8308118,16 17.8556701,16 Z" id="Rectangle-Copy" fill="url(#radialGradient-2)"></path>
            </g>
        </g>
    </g>
</svg>