<?xml version="1.0" encoding="UTF-8"?>
<svg width="20px" height="19px" viewBox="0 0 20 19" version="1.1" xmlns="http://www.w3.org/2000/svg" xmlns:xlink="http://www.w3.org/1999/xlink">
    <!-- Generator: Sketch 52.5 (67469) - http://www.bohemiancoding.com/sketch -->
    <title>Group</title>
    <desc>Created with Sketch.</desc>
    <defs>
        <radialGradient cx="50%" cy="0%" fx="50%" fy="0%" r="100%" gradientTransform="translate(0.500000,0.000000),scale(0.928657,1.000000),rotate(90.000000),translate(-0.500000,-0.000000)" id="radialGradient-1">
            <stop stop-color="#655FFF" offset="0%"></stop>
            <stop stop-color="#4945BB" offset="100%"></stop>
        </radialGradient>
        <radialGradient cx="50%" cy="0%" fx="50%" fy="0%" r="100%" gradientTransform="translate(0.500000,0.000000),scale(0.545455,1.000000),rotate(90.000000),translate(-0.500000,-0.000000)" id="radialGradient-2">
            <stop stop-color="#655FFF" offset="0%"></stop>
            <stop stop-color="#4945BB" offset="100%"></stop>
        </radialGradient>
    </defs>
    <g id="Symbols" stroke="none" stroke-width="1" fill="none" fill-rule="evenodd">
        <g id="Stockholm-icons-/-Communication-/-Chat#6" transform="translate(-2.000000, -3.000000)">
            <g id="Group" transform="translate(2.000000, 3.000000)">
                <path d="M12.486222,15 L10.7974954,18.0565532 C10.530414,18.5399639 9.92201983,18.7153335 9.43860908,18.4482521 C9.29771273,18.3704077 9.17769072,18.2597005 9.08874186,18.1255379 L7.01653358,15 L3,15 C1.34314575,15 2.02906125e-16,13.6568542 0,12 L0,3 C-2.02906125e-16,1.34314575 1.34314575,-1.21301387e-14 3,-1.24344979e-14 L17,-1.24344979e-14 C18.6568542,-1.27388571e-14 20,1.34314575 20,3 L20,12 C20,13.6568542 18.6568542,15 17,15 L12.486222,15 Z" id="Combined-Shape" fill="url(#radialGradient-1)" opacity="0.3"></path>
                <path d="M4,4 L13,4 C13.5522847,4 14,4.44771525 14,5 C14,5.55228475 13.5522847,6 13,6 L4,6 C3.44771525,6 3,5.55228475 3,5 C3,4.44771525 3.44771525,4 4,4 Z M4,8 L9,8 C9.55228475,8 10,8.44771525 10,9 C10,9.55228475 9.55228475,10 9,10 L4,10 C3.44771525,10 3,9.55228475 3,9 C3,8.44771525 3.44771525,8 4,8 Z" id="Combined-Shape" fill="url(#radialGradient-2)" opacity="0.601074219"></path>
            </g>
        </g>
    </g>
</svg>