<?xml version="1.0" encoding="UTF-8"?>
<svg width="21px" height="20px" viewBox="0 0 21 20" version="1.1" xmlns="http://www.w3.org/2000/svg" xmlns:xlink="http://www.w3.org/1999/xlink">
    <!-- Generator: Sketch 52.5 (67469) - http://www.bohemiancoding.com/sketch -->
    <title>Group</title>
    <desc>Created with Sketch.</desc>
    <defs>
        <radialGradient cx="50%" cy="0%" fx="50%" fy="0%" r="287.670312%" gradientTransform="translate(0.500000,0.000000),scale(1.000000,0.347620),rotate(90.000000),translate(-0.500000,-0.000000)" id="radialGradient-1">
            <stop stop-color="#655FFF" offset="0%"></stop>
            <stop stop-color="#4945BB" offset="100%"></stop>
        </radialGradient>
        <radialGradient cx="50%" cy="0%" fx="50%" fy="0%" r="100%" id="radialGradient-2">
            <stop stop-color="#655FFF" offset="0%"></stop>
            <stop stop-color="#4945BB" offset="100%"></stop>
        </radialGradient>
    </defs>
    <g id="Symbols" stroke="none" stroke-width="1" fill="none" fill-rule="evenodd">
        <g id="Stockholm-icons-/-Communication-/-Write" transform="translate(-2.000000, -2.000000)" fill-rule="nonzero">
            <g id="Group" transform="translate(2.000000, 2.000000)">
                <path d="M10.2674799,16.2323597 L10.0084872,3.45852451 C10.0004303,3.06114792 10.1504154,2.6768183 10.4255037,2.38993949 L13.0030167,-0.298046956 L15.5910752,2.40093695 C15.8599071,2.6812911 16.0095067,3.05499603 16.0083938,3.44341307 L15.9718262,16.2062508 C15.9694575,17.0329966 15.2985816,17.701953 14.4718324,17.701953 L11.7671717,17.701953 C10.9505952,17.701953 10.2840328,17.0487684 10.2674799,16.2323597 Z" id="Path-11" fill="url(#radialGradient-1)" transform="translate(12.701953, 8.701953) rotate(-135.000000) translate(-12.701953, -8.701953) "></path>
                <path d="M10.9,0 C11.4522847,0 11.9,0.44771525 11.9,1 C11.9,1.55228475 11.4522847,2 10.9,2 L4,2 C2.8954305,2 2,2.8954305 2,4 L2,16 C2,17.1045695 2.8954305,18 4,18 L16,18 C17.1045695,18 18,17.1045695 18,16 L18,11 C18,10.4477153 18.4477153,10 19,10 C19.5522847,10 20,10.4477153 20,11 L20,16 C20,18.209139 18.209139,20 16,20 L4,20 C1.790861,20 0,18.209139 0,16 L0,4 C0,1.790861 1.790861,4.4408921e-16 4,0 L10.9,0 Z" id="Path-57" fill="url(#radialGradient-2)" opacity="0.3"></path>
            </g>
        </g>
    </g>
</svg>