<?xml version="1.0" encoding="UTF-8"?>
<svg width="56px" height="49px" viewBox="0 0 56 49" version="1.1" xmlns="http://www.w3.org/2000/svg" xmlns:xlink="http://www.w3.org/1999/xlink">
    <!-- Generator: Sketch 52.5 (67469) - http://www.bohemiancoding.com/sketch -->
    <title>logo-white</title>
    <desc>Created with Sketch.</desc>
    <g id="Page-1" stroke="none" stroke-width="1" fill="none" fill-rule="evenodd">
        <g id="logo-white" transform="translate(28.000000, 24.500000) scale(-1, 1) translate(-28.000000, -24.500000) " fill="#FFFFFF">
            <path d="M2.4742268,1.33226763e-15 L53.0587273,2.22044605e-15 C54.425205,-1.67159993e-15 55.5329541,1.10774907 55.5329541,2.4742268 C55.5329541,3.21711642 55.1991532,3.92069159 54.6237613,4.39059495 L4.03926079,45.7012704 C2.98087989,46.5656148 1.42220306,46.4083171 0.557858653,45.3499362 C0.197070519,44.9081548 -7.78333026e-14,44.355287 -7.63833441e-14,43.7849022 L-9.23705556e-14,2.4742268 C-9.25379009e-14,1.10774907 1.10774907,2.5101789e-16 2.4742268,1.33226763e-15 Z" id="Rectangle" opacity="0.201171875"></path>
            <path d="M17.8556701,16 L52.8279198,16 C53.8527781,16 54.6835899,16.8308118 54.6835899,17.8556701 C54.6835899,18.4150369 54.4312675,18.9445588 53.9968253,19.2969096 L19.0245756,47.6608667 C18.228601,48.3064354 17.0599993,48.1845073 16.4144306,47.3885327 C16.1463198,47.0579569 16,46.6452606 16,46.2196272 L16,17.8556701 C16,16.8308118 16.8308118,16 17.8556701,16 Z" id="Rectangle-Copy"></path>
        </g>
    </g>
</svg>