<?xml version="1.0" encoding="UTF-8"?>
<svg width="18px" height="15px" viewBox="0 0 18 15" version="1.1" xmlns="http://www.w3.org/2000/svg" xmlns:xlink="http://www.w3.org/1999/xlink">
    <!-- Generator: Sketch 52.5 (67469) - http://www.bohemiancoding.com/sketch -->
    <title>Rectangle 25</title>
    <desc>Created with Sketch.</desc>
    <defs>
        <radialGradient cx="50%" cy="0%" fx="50%" fy="0%" r="100%" gradientTransform="translate(0.500000,0.000000),scale(0.833333,1.000000),rotate(90.000000),translate(-0.500000,-0.000000)" id="radialGradient-1">
            <stop stop-color="#655FFF" offset="0%"></stop>
            <stop stop-color="#4945BB" offset="100%"></stop>
        </radialGradient>
    </defs>
    <g id="Symbols" stroke="none" stroke-width="1" fill="none" fill-rule="evenodd">
        <g id="Stockholm-icons-/-Design-/-Image" transform="translate(-3.000000, -5.000000)" fill="url(#radialGradient-1)">
            <path d="M6,5 L18,5 C19.6568542,5 21,6.34314575 21,8 L21,17 C21,18.6568542 19.6568542,20 18,20 L6,20 C4.34314575,20 3,18.6568542 3,17 L3,8 C3,6.34314575 4.34314575,5 6,5 Z M5,17 L14,17 L9.5,11 L5,17 Z M16,14 C17.6568542,14 19,12.6568542 19,11 C19,9.34314575 17.6568542,8 16,8 C14.3431458,8 13,9.34314575 13,11 C13,12.6568542 14.3431458,14 16,14 Z" id="Rectangle-25"></path>
        </g>
    </g>
</svg>